<mxfile host="app.diagrams.net" modified="2024-03-10T16:24:41.104Z" agent="Mozilla/5.0 (X11; Ubuntu; Linux x86_64; rv:123.0) Gecko/20100101 Firefox/123.0" etag="oRN3gU5FWmLkk8P1xvpD" version="24.0.4" type="device">
  <diagram id="C5RBs43oDa-KdzZeNtuy" name="Page-1">
    <mxGraphModel dx="1949" dy="2260" grid="1" gridSize="10" guides="1" tooltips="1" connect="1" arrows="1" fold="1" page="1" pageScale="1" pageWidth="827" pageHeight="1169" math="0" shadow="0">
      <root>
        <mxCell id="WIyWlLk6GJQsqaUBKTNV-0" />
        <mxCell id="WIyWlLk6GJQsqaUBKTNV-1" parent="WIyWlLk6GJQsqaUBKTNV-0" />
        <mxCell id="I6zq0FRwfvRmoIe7PQwu-28" value="&lt;p style=&quot;margin:0px;margin-top:4px;text-align:center;&quot;&gt;&lt;b&gt;REPO&lt;/b&gt;&lt;/p&gt;&lt;hr size=&quot;1&quot; style=&quot;border-style:solid;&quot;&gt;&lt;div style=&quot;height:2px;&quot;&gt;&lt;/div&gt;" style="verticalAlign=top;align=left;overflow=fill;html=1;whiteSpace=wrap;" vertex="1" parent="WIyWlLk6GJQsqaUBKTNV-1">
          <mxGeometry x="45" y="-20" width="1105" height="990" as="geometry" />
        </mxCell>
        <mxCell id="I6zq0FRwfvRmoIe7PQwu-29" value="&lt;p style=&quot;margin:0px;margin-top:4px;text-align:center;&quot;&gt;&lt;b&gt;CODE&lt;/b&gt;&lt;/p&gt;&lt;hr size=&quot;1&quot; style=&quot;border-style:solid;&quot;&gt;&lt;div style=&quot;height:2px;&quot;&gt;&lt;/div&gt;" style="verticalAlign=top;align=left;overflow=fill;html=1;whiteSpace=wrap;" vertex="1" parent="WIyWlLk6GJQsqaUBKTNV-1">
          <mxGeometry x="60" y="390" width="1060" height="560" as="geometry" />
        </mxCell>
        <mxCell id="I6zq0FRwfvRmoIe7PQwu-9" style="edgeStyle=orthogonalEdgeStyle;rounded=0;orthogonalLoop=1;jettySize=auto;html=1;entryX=0;entryY=0.5;entryDx=0;entryDy=0;" edge="1" parent="WIyWlLk6GJQsqaUBKTNV-1" source="I6zq0FRwfvRmoIe7PQwu-0" target="I6zq0FRwfvRmoIe7PQwu-1">
          <mxGeometry relative="1" as="geometry" />
        </mxCell>
        <mxCell id="I6zq0FRwfvRmoIe7PQwu-0" value="M. Doumit" style="shape=umlActor;verticalLabelPosition=bottom;verticalAlign=top;html=1;" vertex="1" parent="WIyWlLk6GJQsqaUBKTNV-1">
          <mxGeometry x="80" y="100" width="30" height="60" as="geometry" />
        </mxCell>
        <mxCell id="I6zq0FRwfvRmoIe7PQwu-1" value="&lt;div&gt;«MATLAB GUI»&lt;br&gt;&lt;b&gt;entry point to program&lt;/b&gt;&lt;br&gt;&lt;/div&gt;" style="html=1;dropTarget=0;whiteSpace=wrap;" vertex="1" parent="WIyWlLk6GJQsqaUBKTNV-1">
          <mxGeometry x="360" y="90" width="160" height="80" as="geometry" />
        </mxCell>
        <mxCell id="I6zq0FRwfvRmoIe7PQwu-2" value="" style="shape=module;jettyWidth=8;jettyHeight=4;" vertex="1" parent="I6zq0FRwfvRmoIe7PQwu-1">
          <mxGeometry x="1" width="20" height="20" relative="1" as="geometry">
            <mxPoint x="-27" y="7" as="offset" />
          </mxGeometry>
        </mxCell>
        <mxCell id="I6zq0FRwfvRmoIe7PQwu-10" style="edgeStyle=orthogonalEdgeStyle;rounded=0;orthogonalLoop=1;jettySize=auto;html=1;" edge="1" parent="WIyWlLk6GJQsqaUBKTNV-1" source="I6zq0FRwfvRmoIe7PQwu-3">
          <mxGeometry relative="1" as="geometry">
            <mxPoint x="220" y="130" as="targetPoint" />
          </mxGeometry>
        </mxCell>
        <mxCell id="I6zq0FRwfvRmoIe7PQwu-3" value="&lt;div style=&quot;box-sizing:border-box;width:100%;background:#e4e4e4;padding:2px;&quot;&gt;UserData&lt;br&gt;&lt;/div&gt;&lt;table style=&quot;width:100%;font-size:1em;&quot; cellpadding=&quot;2&quot; cellspacing=&quot;0&quot;&gt;&lt;tbody&gt;&lt;tr&gt;&lt;td&gt;user_weight&lt;br&gt;&lt;/td&gt;&lt;td&gt;uniqueId&lt;/td&gt;&lt;/tr&gt;&lt;tr&gt;&lt;td&gt;user_height&lt;br&gt;&lt;/td&gt;&lt;td&gt;foreignKey&lt;/td&gt;&lt;/tr&gt;&lt;tr&gt;&lt;td&gt;user_age&lt;/td&gt;&lt;td&gt;fieldname&lt;/td&gt;&lt;/tr&gt;&lt;/tbody&gt;&lt;/table&gt;" style="verticalAlign=top;align=left;overflow=fill;html=1;whiteSpace=wrap;" vertex="1" parent="WIyWlLk6GJQsqaUBKTNV-1">
          <mxGeometry x="140" y="20" width="160" height="80" as="geometry" />
        </mxCell>
        <mxCell id="I6zq0FRwfvRmoIe7PQwu-4" value="main.m" style="swimlane;fontStyle=1;align=center;verticalAlign=top;childLayout=stackLayout;horizontal=1;startSize=26;horizontalStack=0;resizeParent=1;resizeParentMax=0;resizeLast=0;collapsible=1;marginBottom=0;whiteSpace=wrap;html=1;" vertex="1" parent="WIyWlLk6GJQsqaUBKTNV-1">
          <mxGeometry x="360" y="170" width="160" height="190" as="geometry" />
        </mxCell>
        <mxCell id="I6zq0FRwfvRmoIe7PQwu-5" value="&lt;div&gt;+ logo: img&lt;/div&gt;&lt;div&gt;+ CAD: img&lt;/div&gt;&lt;div&gt;+ user_data: various&lt;br&gt;&lt;/div&gt;" style="text;strokeColor=none;fillColor=none;align=left;verticalAlign=top;spacingLeft=4;spacingRight=4;overflow=hidden;rotatable=0;points=[[0,0.5],[1,0.5]];portConstraint=eastwest;whiteSpace=wrap;html=1;" vertex="1" parent="I6zq0FRwfvRmoIe7PQwu-4">
          <mxGeometry y="26" width="160" height="54" as="geometry" />
        </mxCell>
        <mxCell id="I6zq0FRwfvRmoIe7PQwu-6" value="" style="line;strokeWidth=1;fillColor=none;align=left;verticalAlign=middle;spacingTop=-1;spacingLeft=3;spacingRight=3;rotatable=0;labelPosition=right;points=[];portConstraint=eastwest;strokeColor=inherit;" vertex="1" parent="I6zq0FRwfvRmoIe7PQwu-4">
          <mxGeometry y="80" width="160" height="8" as="geometry" />
        </mxCell>
        <mxCell id="I6zq0FRwfvRmoIe7PQwu-7" value="&lt;div&gt;+ on_init(): &lt;br&gt;&lt;/div&gt;&lt;div&gt;+ display():&lt;/div&gt;&lt;div&gt;+ input_validation():&lt;/div&gt;&lt;div&gt;+ callbacks():&lt;/div&gt;&lt;div&gt;+ on_shutdown():&lt;/div&gt;&lt;div&gt;+ generate_design():&lt;br&gt;&lt;/div&gt;" style="text;strokeColor=none;fillColor=none;align=left;verticalAlign=top;spacingLeft=4;spacingRight=4;overflow=hidden;rotatable=0;points=[[0,0.5],[1,0.5]];portConstraint=eastwest;whiteSpace=wrap;html=1;" vertex="1" parent="I6zq0FRwfvRmoIe7PQwu-4">
          <mxGeometry y="88" width="160" height="102" as="geometry" />
        </mxCell>
        <mxCell id="I6zq0FRwfvRmoIe7PQwu-11" value="system_design.m" style="swimlane;fontStyle=1;align=center;verticalAlign=top;childLayout=stackLayout;horizontal=1;startSize=26;horizontalStack=0;resizeParent=1;resizeParentMax=0;resizeLast=0;collapsible=1;marginBottom=0;whiteSpace=wrap;html=1;" vertex="1" parent="WIyWlLk6GJQsqaUBKTNV-1">
          <mxGeometry x="85" y="490" width="290" height="170" as="geometry" />
        </mxCell>
        <mxCell id="I6zq0FRwfvRmoIe7PQwu-12" value="&lt;div&gt;+ system_mass: double&lt;/div&gt;&lt;div&gt;+ CONSTANTS: dict{str, double}&lt;/div&gt;&lt;div&gt;+ material_properties: dict{str, dict{str, double}}&lt;br&gt;+ requirements: dict{str, double}&lt;br&gt;&lt;/div&gt;" style="text;strokeColor=none;fillColor=none;align=left;verticalAlign=top;spacingLeft=4;spacingRight=4;overflow=hidden;rotatable=0;points=[[0,0.5],[1,0.5]];portConstraint=eastwest;whiteSpace=wrap;html=1;" vertex="1" parent="I6zq0FRwfvRmoIe7PQwu-11">
          <mxGeometry y="26" width="290" height="64" as="geometry" />
        </mxCell>
        <mxCell id="I6zq0FRwfvRmoIe7PQwu-13" value="" style="line;strokeWidth=1;fillColor=none;align=left;verticalAlign=middle;spacingTop=-1;spacingLeft=3;spacingRight=3;rotatable=0;labelPosition=right;points=[];portConstraint=eastwest;strokeColor=inherit;" vertex="1" parent="I6zq0FRwfvRmoIe7PQwu-11">
          <mxGeometry y="90" width="290" height="8" as="geometry" />
        </mxCell>
        <mxCell id="I6zq0FRwfvRmoIe7PQwu-14" value="+ calculate_mass(user_data): double&lt;br&gt;&lt;div&gt;+ inverse_dynamics(user_data): load_case&lt;/div&gt;&lt;div&gt;+ anthropometry(user_data): anthropometric_data&lt;br&gt;&lt;/div&gt;&lt;div&gt;+ subsystem_design():&lt;br&gt;&lt;/div&gt;" style="text;strokeColor=none;fillColor=none;align=left;verticalAlign=top;spacingLeft=4;spacingRight=4;overflow=hidden;rotatable=0;points=[[0,0.5],[1,0.5]];portConstraint=eastwest;whiteSpace=wrap;html=1;" vertex="1" parent="I6zq0FRwfvRmoIe7PQwu-11">
          <mxGeometry y="98" width="290" height="72" as="geometry" />
        </mxCell>
        <mxCell id="I6zq0FRwfvRmoIe7PQwu-15" style="edgeStyle=orthogonalEdgeStyle;rounded=0;orthogonalLoop=1;jettySize=auto;html=1;entryX=0.5;entryY=0;entryDx=0;entryDy=0;" edge="1" parent="WIyWlLk6GJQsqaUBKTNV-1" source="I6zq0FRwfvRmoIe7PQwu-7" target="I6zq0FRwfvRmoIe7PQwu-11">
          <mxGeometry relative="1" as="geometry" />
        </mxCell>
        <mxCell id="I6zq0FRwfvRmoIe7PQwu-16" value="&lt;div&gt;generate_design()&lt;/div&gt;" style="text;html=1;align=center;verticalAlign=middle;resizable=0;points=[];autosize=1;strokeColor=none;fillColor=none;" vertex="1" parent="WIyWlLk6GJQsqaUBKTNV-1">
          <mxGeometry x="230" y="280" width="120" height="30" as="geometry" />
        </mxCell>
        <mxCell id="I6zq0FRwfvRmoIe7PQwu-19" value="trc_design.m" style="swimlane;fontStyle=1;align=center;verticalAlign=top;childLayout=stackLayout;horizontal=1;startSize=26;horizontalStack=0;resizeParent=1;resizeParentMax=0;resizeLast=0;collapsible=1;marginBottom=0;whiteSpace=wrap;html=1;" vertex="1" parent="WIyWlLk6GJQsqaUBKTNV-1">
          <mxGeometry x="480" y="460" width="290" height="130" as="geometry" />
        </mxCell>
        <mxCell id="I6zq0FRwfvRmoIe7PQwu-20" value="&lt;div&gt;+ subsystem_mass: double&lt;/div&gt;&lt;div&gt;+ safety_factor: dict{str, double}&lt;/div&gt;&lt;div&gt;+ subsystem_parameters: {dict, double}&lt;br&gt;&lt;/div&gt;" style="text;strokeColor=none;fillColor=none;align=left;verticalAlign=top;spacingLeft=4;spacingRight=4;overflow=hidden;rotatable=0;points=[[0,0.5],[1,0.5]];portConstraint=eastwest;whiteSpace=wrap;html=1;" vertex="1" parent="I6zq0FRwfvRmoIe7PQwu-19">
          <mxGeometry y="26" width="290" height="54" as="geometry" />
        </mxCell>
        <mxCell id="I6zq0FRwfvRmoIe7PQwu-21" value="" style="line;strokeWidth=1;fillColor=none;align=left;verticalAlign=middle;spacingTop=-1;spacingLeft=3;spacingRight=3;rotatable=0;labelPosition=right;points=[];portConstraint=eastwest;strokeColor=inherit;" vertex="1" parent="I6zq0FRwfvRmoIe7PQwu-19">
          <mxGeometry y="80" width="290" height="8" as="geometry" />
        </mxCell>
        <mxCell id="I6zq0FRwfvRmoIe7PQwu-22" value="+ calculate_mass(user_data): double&lt;br&gt;&lt;div&gt;+ stress_calc [0 ... N](data): SF&lt;br&gt;&lt;/div&gt;" style="text;strokeColor=none;fillColor=none;align=left;verticalAlign=top;spacingLeft=4;spacingRight=4;overflow=hidden;rotatable=0;points=[[0,0.5],[1,0.5]];portConstraint=eastwest;whiteSpace=wrap;html=1;" vertex="1" parent="I6zq0FRwfvRmoIe7PQwu-19">
          <mxGeometry y="88" width="290" height="42" as="geometry" />
        </mxCell>
        <mxCell id="I6zq0FRwfvRmoIe7PQwu-32" value="" style="group" vertex="1" connectable="0" parent="WIyWlLk6GJQsqaUBKTNV-1">
          <mxGeometry x="100" y="750" width="260" height="155" as="geometry" />
        </mxCell>
        <mxCell id="I6zq0FRwfvRmoIe7PQwu-30" value="&lt;p style=&quot;margin:0px;margin-top:4px;text-align:center;&quot;&gt;&lt;b&gt;COMMON&lt;/b&gt;&lt;/p&gt;&lt;hr size=&quot;1&quot; style=&quot;border-style:solid;&quot;&gt;&lt;div style=&quot;height:2px;&quot;&gt;&lt;/div&gt;" style="verticalAlign=top;align=left;overflow=fill;html=1;whiteSpace=wrap;" vertex="1" parent="I6zq0FRwfvRmoIe7PQwu-32">
          <mxGeometry width="260" height="155" as="geometry" />
        </mxCell>
        <mxCell id="I6zq0FRwfvRmoIe7PQwu-25" value="&lt;p style=&quot;margin:0px;margin-top:4px;text-align:center;&quot;&gt;&lt;b&gt;common_calc.m&lt;/b&gt;&lt;/p&gt;&lt;hr size=&quot;1&quot; style=&quot;border-style:solid;&quot;&gt;+ calc(): Type" style="verticalAlign=top;align=left;overflow=fill;html=1;whiteSpace=wrap;" vertex="1" parent="I6zq0FRwfvRmoIe7PQwu-32">
          <mxGeometry x="10" y="65" width="160" height="50" as="geometry" />
        </mxCell>
        <mxCell id="I6zq0FRwfvRmoIe7PQwu-31" value="X 4" style="text;html=1;align=center;verticalAlign=middle;resizable=0;points=[];autosize=1;strokeColor=none;fillColor=none;" vertex="1" parent="I6zq0FRwfvRmoIe7PQwu-32">
          <mxGeometry x="180" y="75" width="40" height="30" as="geometry" />
        </mxCell>
        <mxCell id="I6zq0FRwfvRmoIe7PQwu-33" value="la_design.m" style="swimlane;fontStyle=1;align=center;verticalAlign=top;childLayout=stackLayout;horizontal=1;startSize=26;horizontalStack=0;resizeParent=1;resizeParentMax=0;resizeLast=0;collapsible=1;marginBottom=0;whiteSpace=wrap;html=1;" vertex="1" parent="WIyWlLk6GJQsqaUBKTNV-1">
          <mxGeometry x="800" y="640" width="290" height="130" as="geometry" />
        </mxCell>
        <mxCell id="I6zq0FRwfvRmoIe7PQwu-34" value="&lt;div&gt;+ subsystem_mass: double&lt;/div&gt;&lt;div&gt;+ safety_factor: dict{str, double}&lt;/div&gt;&lt;div&gt;+ subsystem_parameters: {dict, double}&lt;br&gt;&lt;/div&gt;" style="text;strokeColor=none;fillColor=none;align=left;verticalAlign=top;spacingLeft=4;spacingRight=4;overflow=hidden;rotatable=0;points=[[0,0.5],[1,0.5]];portConstraint=eastwest;whiteSpace=wrap;html=1;" vertex="1" parent="I6zq0FRwfvRmoIe7PQwu-33">
          <mxGeometry y="26" width="290" height="54" as="geometry" />
        </mxCell>
        <mxCell id="I6zq0FRwfvRmoIe7PQwu-35" value="" style="line;strokeWidth=1;fillColor=none;align=left;verticalAlign=middle;spacingTop=-1;spacingLeft=3;spacingRight=3;rotatable=0;labelPosition=right;points=[];portConstraint=eastwest;strokeColor=inherit;" vertex="1" parent="I6zq0FRwfvRmoIe7PQwu-33">
          <mxGeometry y="80" width="290" height="8" as="geometry" />
        </mxCell>
        <mxCell id="I6zq0FRwfvRmoIe7PQwu-36" value="+ calculate_mass(user_data): double&lt;br&gt;&lt;div&gt;+ stress_calc [0 ... N](data): SF&lt;br&gt;&lt;/div&gt;" style="text;strokeColor=none;fillColor=none;align=left;verticalAlign=top;spacingLeft=4;spacingRight=4;overflow=hidden;rotatable=0;points=[[0,0.5],[1,0.5]];portConstraint=eastwest;whiteSpace=wrap;html=1;" vertex="1" parent="I6zq0FRwfvRmoIe7PQwu-33">
          <mxGeometry y="88" width="290" height="42" as="geometry" />
        </mxCell>
        <mxCell id="I6zq0FRwfvRmoIe7PQwu-37" value="wrc_design.m" style="swimlane;fontStyle=1;align=center;verticalAlign=top;childLayout=stackLayout;horizontal=1;startSize=26;horizontalStack=0;resizeParent=1;resizeParentMax=0;resizeLast=0;collapsible=1;marginBottom=0;whiteSpace=wrap;html=1;" vertex="1" parent="WIyWlLk6GJQsqaUBKTNV-1">
          <mxGeometry x="800" y="470" width="290" height="130" as="geometry" />
        </mxCell>
        <mxCell id="I6zq0FRwfvRmoIe7PQwu-38" value="&lt;div&gt;+ subsystem_mass: double&lt;/div&gt;&lt;div&gt;+ safety_factor: dict{str, double}&lt;/div&gt;&lt;div&gt;+ subsystem_parameters: {dict, double}&lt;br&gt;&lt;/div&gt;" style="text;strokeColor=none;fillColor=none;align=left;verticalAlign=top;spacingLeft=4;spacingRight=4;overflow=hidden;rotatable=0;points=[[0,0.5],[1,0.5]];portConstraint=eastwest;whiteSpace=wrap;html=1;" vertex="1" parent="I6zq0FRwfvRmoIe7PQwu-37">
          <mxGeometry y="26" width="290" height="54" as="geometry" />
        </mxCell>
        <mxCell id="I6zq0FRwfvRmoIe7PQwu-39" value="" style="line;strokeWidth=1;fillColor=none;align=left;verticalAlign=middle;spacingTop=-1;spacingLeft=3;spacingRight=3;rotatable=0;labelPosition=right;points=[];portConstraint=eastwest;strokeColor=inherit;" vertex="1" parent="I6zq0FRwfvRmoIe7PQwu-37">
          <mxGeometry y="80" width="290" height="8" as="geometry" />
        </mxCell>
        <mxCell id="I6zq0FRwfvRmoIe7PQwu-40" value="+ calculate_mass(user_data): double&lt;br&gt;&lt;div&gt;+ stress_calc [0 ... N](data): SF&lt;br&gt;&lt;/div&gt;" style="text;strokeColor=none;fillColor=none;align=left;verticalAlign=top;spacingLeft=4;spacingRight=4;overflow=hidden;rotatable=0;points=[[0,0.5],[1,0.5]];portConstraint=eastwest;whiteSpace=wrap;html=1;" vertex="1" parent="I6zq0FRwfvRmoIe7PQwu-37">
          <mxGeometry y="88" width="290" height="42" as="geometry" />
        </mxCell>
        <mxCell id="I6zq0FRwfvRmoIe7PQwu-41" value="esr_design.m" style="swimlane;fontStyle=1;align=center;verticalAlign=top;childLayout=stackLayout;horizontal=1;startSize=26;horizontalStack=0;resizeParent=1;resizeParentMax=0;resizeLast=0;collapsible=1;marginBottom=0;whiteSpace=wrap;html=1;" vertex="1" parent="WIyWlLk6GJQsqaUBKTNV-1">
          <mxGeometry x="470" y="650" width="290" height="130" as="geometry" />
        </mxCell>
        <mxCell id="I6zq0FRwfvRmoIe7PQwu-42" value="&lt;div&gt;+ subsystem_mass: double&lt;/div&gt;&lt;div&gt;+ safety_factor: dict{str, double}&lt;/div&gt;&lt;div&gt;+ subsystem_parameters: {dict, double}&lt;br&gt;&lt;/div&gt;" style="text;strokeColor=none;fillColor=none;align=left;verticalAlign=top;spacingLeft=4;spacingRight=4;overflow=hidden;rotatable=0;points=[[0,0.5],[1,0.5]];portConstraint=eastwest;whiteSpace=wrap;html=1;" vertex="1" parent="I6zq0FRwfvRmoIe7PQwu-41">
          <mxGeometry y="26" width="290" height="54" as="geometry" />
        </mxCell>
        <mxCell id="I6zq0FRwfvRmoIe7PQwu-43" value="" style="line;strokeWidth=1;fillColor=none;align=left;verticalAlign=middle;spacingTop=-1;spacingLeft=3;spacingRight=3;rotatable=0;labelPosition=right;points=[];portConstraint=eastwest;strokeColor=inherit;" vertex="1" parent="I6zq0FRwfvRmoIe7PQwu-41">
          <mxGeometry y="80" width="290" height="8" as="geometry" />
        </mxCell>
        <mxCell id="I6zq0FRwfvRmoIe7PQwu-44" value="+ calculate_mass(user_data): double&lt;br&gt;&lt;div&gt;+ stress_calc [0 ... N](data): SF&lt;br&gt;&lt;/div&gt;" style="text;strokeColor=none;fillColor=none;align=left;verticalAlign=top;spacingLeft=4;spacingRight=4;overflow=hidden;rotatable=0;points=[[0,0.5],[1,0.5]];portConstraint=eastwest;whiteSpace=wrap;html=1;" vertex="1" parent="I6zq0FRwfvRmoIe7PQwu-41">
          <mxGeometry y="88" width="290" height="42" as="geometry" />
        </mxCell>
      </root>
    </mxGraphModel>
  </diagram>
</mxfile>
